<?xml version="1.0" encoding="UTF-8" standalone="no"?>
<!DOCTYPE svg PUBLIC "-//W3C//DTD SVG 1.1//EN" "http://www.w3.org/Graphics/SVG/1.1/DTD/svg11.dtd">
<svg width="100%" height="100%" viewBox="0 0 1080 665" version="1.1" xmlns="http://www.w3.org/2000/svg" xmlns:xlink="http://www.w3.org/1999/xlink" xml:space="preserve" xmlns:serif="http://www.serif.com/" style="fill-rule:evenodd;clip-rule:evenodd;stroke-linejoin:round;stroke-miterlimit:2;">
    <g transform="matrix(1.62162,0,0,1.62162,0,0)">
        <rect x="0" y="0" width="666" height="410"/>
    </g>
    <g transform="matrix(1.62162,0,0,1.62162,-0.431911,10.0116)">
        <path d="M53,126L53,186C53,197.362 54.727,206.271 44,213L44,215C46.78,217.015 49.973,219.003 51.682,222.09C54.724,227.584 53,236.898 53,243L53,291L78,291L78,237C78,227.053 79.215,218.877 69,214C71.296,210.868 74.735,208.421 76.543,204.961C78.967,200.323 78,194.064 78,189C79.568,193.18 81.902,199.559 80.382,204C79.223,207.384 76.027,210.108 74,213C86.664,219.026 87.787,229.585 90.651,242C94.419,258.332 98.808,274.539 102,291C106.701,291 117.465,293.017 121.258,289.972C122.957,288.609 123.041,285.952 123.498,283.999C124.669,279.005 126.005,274.053 126.917,269C128.846,258.302 131.234,247.615 133.576,237C134.661,232.078 136.953,226.059 135.566,221.015C134.568,217.388 131.194,214.906 129,212C139.441,207.623 142.524,199.917 143,189C145.896,198.797 143.282,206.292 135,212C137.248,216.441 142.207,219.04 143.566,224C145.378,230.612 144,239.172 144,246L144,291L169,291C167.449,284.487 168,277.659 168,271L168,239C168,233.578 169.586,225.046 166.821,220.184C165.152,217.25 161.832,215.583 159,214C161.543,211.812 164.962,209.766 166.682,206.816C170.36,200.506 168,188.131 168,181C168,162.608 168.213,144.326 169,126L145,126C142.227,126 137.943,125.266 135.564,127.028C133.243,128.747 133.259,132.428 132.866,135C131.947,141.004 130.716,147.001 129.715,153C127.768,164.656 125.403,176.461 122.883,188C121.809,192.921 121.693,198.601 118.992,202.985C116.598,206.87 112.534,209.273 109,212C111.27,214.852 114.665,217.355 115.667,221.004C117.534,227.797 113.146,236.937 113,244C109.089,236.783 110.866,226.813 106.262,220.093C103.866,216.598 99.843,214.457 96,213L96,211C106.49,206.064 102.605,196.166 100.661,187C96.371,166.768 92.939,146.309 89,126L53,126Z" style="fill:white;fill-rule:nonzero;"/>
    </g>
    <g transform="matrix(1.62162,0,0,1.62162,-0.431911,10.0116)">
        <path d="M177,125L177,183C177,194.559 178.462,203.609 168,211L168,214C180.388,220.445 177,235.102 177,247C177,263.297 181.057,278.104 196,287.07C215.685,298.882 243.375,289.886 252.651,269C257.216,258.722 255,245.003 255,234C255,229.736 255.926,224.111 254.258,220.093C252.721,216.393 248.419,214.138 246,211C257.003,206.734 255,196.912 255,187L255,149C255,141.409 254.233,133.422 256,126L230,126L230,178C230,185.094 231.866,195.359 229.142,201.996C227.357,206.346 222.915,208.559 220,212C231.474,218.638 230,228.261 230,240C230,244.86 230.623,250.244 229.467,255C227.606,262.655 219.992,268.84 212,266.347C187.557,258.724 213.917,221.516 192,213C194.168,208.755 199.039,206.699 200.427,201.985C202.617,194.55 201,184.71 201,177L201,126C192.981,126 184.911,126.469 177,125Z" style="fill:white;fill-rule:nonzero;"/>
    </g>
    <g transform="matrix(1.62162,0,0,1.62162,-0.431911,10.0116)">
        <path d="M264,245C264.023,253.5 265.511,262.24 269.123,270C279.255,291.766 309.818,301.453 330,286.443C348.699,272.535 350.891,241.914 336.61,224.005C332.298,218.597 325.384,215.323 319,213C320.756,203.356 314.309,200.168 308.001,193.985C300.391,186.526 292.456,177.209 292.044,166C291.671,155.827 300.129,140.319 311.985,148.564C317.803,152.61 319.644,159.45 321,166L345,166C344.699,151.485 338.94,136.715 326,128.98C305.415,116.675 274.915,126.6 268.043,150C264.543,161.919 266.369,178.085 271.981,189C274.428,193.757 278.369,197.409 280.991,202C282.777,205.128 281.383,209.716 283.643,212.301C286.644,215.735 293.141,216.563 297,218.954C309.893,226.944 328.26,245.779 317.867,261.996C310.187,273.979 296.584,270.964 290.912,259C289.294,255.588 289.187,248.379 286.258,246.028C284.402,244.538 281.206,245.005 279,245L264,245Z" style="fill:white;fill-rule:nonzero;"/>
    </g>
    <g transform="matrix(1.62162,0,0,1.62162,-0.431911,10.0116)">
        <path d="M355,126L355,175C355,182.933 356.331,192.222 354.721,200C353.519,205.811 347.666,208.53 346,214C356.106,219.894 355,228.602 355,239L355,291L379,291L379,235C379,225.983 380.178,217.463 370,214C372.068,210.006 376.787,208.223 378.397,203.985C380.909,197.369 379,187.03 379,180L379,126L355,126Z" style="fill:white;fill-rule:nonzero;"/>
    </g>
    <g transform="matrix(1.62162,0,0,1.62162,-0.431911,10.0116)">
        <path d="M387,126L387,182C387,188.676 388.898,198.912 385.821,204.996C384.116,208.368 380.854,210.669 378,213C380.66,216.299 384.883,218.915 386.397,223.001C388.587,228.915 387,237.746 387,244L387,291L412,291L412,258C412,252.216 411.164,245.675 412.39,240C413.527,234.743 416.943,229.941 419,225C424.685,233.968 427.658,245.1 431.424,255C435.94,266.87 441.65,278.753 445,291L474,291C472.692,283.406 468.655,276.137 465.8,269C461.39,257.974 456.971,246.91 452.281,236C447.669,225.272 444.798,217.295 433,213C434.874,210.211 437.469,207.485 437.809,204C438.358,198.363 434.735,194.723 437.277,189C443.791,174.332 452.07,160.354 459.247,146C462.438,139.618 466.739,133.075 468,126L451,126C448.416,126.001 444.886,125.458 442.637,127.028C438.396,129.989 436.012,138.482 433.753,143C426.969,156.569 417.208,170.394 413,185C411.054,178.416 412,170.834 412,164L412,126L387,126Z" style="fill:white;fill-rule:nonzero;"/>
    </g>
    <g transform="matrix(1.62162,0,0,1.62162,-0.431911,10.0116)">
        <path d="M498,94C492.68,103.149 488.449,113.328 484.139,123C482.367,126.975 478.868,131.54 478.766,136C478.607,142.966 485.098,146.387 490,149.879C491.998,151.302 494.329,153.381 496.985,152.954C502.312,152.1 506.172,143.516 507.557,139C510.888,128.137 510.182,116.554 506.263,106C504.705,101.805 501.676,98.225 500,94L498,94Z" style="fill:rgb(212,212,212);fill-rule:nonzero;"/>
    </g>
    <g transform="matrix(1.62162,0,0,1.62162,-0.431911,10.0116)">
        <path d="M457,234C463.505,231.78 465.637,221.602 468.731,216C474.605,205.363 480.61,194.782 486.222,184C488.687,179.265 492.406,173.462 492.686,168C492.84,164.992 491.498,161.944 491,159C485.234,158.565 480.311,150.781 475.09,151.832C470.521,152.751 467.032,160.42 464.808,164C457.692,175.453 455.172,186.921 452.396,200C451.511,204.168 448.951,208.692 449.473,213C450.364,220.345 455.883,226.549 457,234Z" style="fill:rgb(212,212,212);fill-rule:nonzero;"/>
    </g>
    <g transform="matrix(1.62162,0,0,1.62162,-0.431911,10.0116)">
        <path d="M553,76C550.667,77.895 549.299,79.306 548,82C545.514,81.543 542.734,80.987 541.028,83.438C538.814,86.617 540.097,92.279 538.945,96C536.47,103.997 531.623,112.597 527.677,120C519.993,134.415 511.389,148.26 504.258,163C498.955,173.963 495.002,185.721 490.397,197C487.36,204.437 481.445,212.335 479.585,220C478.44,224.718 478.163,233.125 478.684,237.91C479.106,241.785 481.482,243.773 481,248C487.165,242.904 491.008,234.664 495.343,228C506.772,210.429 516.585,191.365 526.694,173C530.417,166.238 534.16,159.494 538.34,153C540.33,149.909 541.824,146.883 545,145C546.264,160.477 554.225,176.143 558.576,191C561.233,200.074 562.66,207.721 572,212L571,215C577.751,216.226 580.963,220.355 582,227C585.738,224.548 584.392,220.953 583.6,217C582.47,211.359 581.693,207.356 584.363,202C594.561,181.55 605.533,161.439 615.752,141C619.11,134.283 625.02,121.961 621.397,114.313C620.446,112.304 618.1,111.776 616.509,110.417C614.575,108.763 613.311,106.163 610.907,105.086C604.845,102.374 600.044,113.05 597.7,117C595.621,120.502 594.907,124.396 593.096,128C585.193,143.737 578.421,159.141 577,177C573.558,169.223 572.964,160.339 571.565,152C569.302,138.514 566.326,124.697 566,111C565.755,100.703 565.852,86.568 554,83C554.287,80.279 554.234,78.443 553,76Z" style="fill:rgb(212,212,212);fill-rule:nonzero;"/>
    </g>
</svg>
