<?xml version="1.0" encoding="UTF-8" standalone="no"?>
<!DOCTYPE svg PUBLIC "-//W3C//DTD SVG 1.1//EN" "http://www.w3.org/Graphics/SVG/1.1/DTD/svg11.dtd">
<svg width="100%" height="100%" viewBox="0 0 666 410" version="1.1" xmlns="http://www.w3.org/2000/svg" xmlns:xlink="http://www.w3.org/1999/xlink" xml:space="preserve" xmlns:serif="http://www.serif.com/" style="fill-rule:evenodd;clip-rule:evenodd;stroke-linejoin:round;stroke-miterlimit:2;">
    <rect x="0" y="0" width="666" height="410" style="fill-rule:nonzero;"/>
    <g transform="matrix(1,0,0,1,0,-8)">
        <g transform="matrix(0.418593,0,0,0.418593,-70.2608,-27.4113)">
            <path d="M832.041,275.649C892.178,269.618 954.163,292.789 995.607,337.547C1036.79,382.023 1055.73,446.288 1044.21,506.932C1033.46,563.495 996.278,614.64 945.422,642.356C889.79,672.675 819.333,673.716 762.637,644.589C705.212,615.087 664.083,556.304 657.203,490.844C650.518,427.243 677.031,361.159 727.002,319.66C756.342,295.296 792.695,279.968 830.782,275.782C831.202,275.737 831.621,275.693 832.041,275.649ZM833.365,299.631C781.666,305.315 733.5,335.461 705.876,379.969C677.356,425.922 672.225,485.348 693.052,535.867C712.451,582.923 753.925,620.445 802.971,635.058C856.362,650.965 917.145,638.972 960.617,603.309C1004.3,567.472 1028.68,509.515 1022.68,452.43C1016.82,396.615 982.001,344.741 931.522,318.231C901.914,302.682 867.798,296.173 834.472,299.515C834.103,299.553 833.734,299.592 833.365,299.631Z" style="fill:white;fill-rule:nonzero;"/>
        </g>
        <g transform="matrix(0.418593,0,0,0.418593,-70.2608,-27.4113)">
            <path d="M844.162,397.033C884.645,392.778 920.967,422.191 925.221,462.674C929.476,503.156 900.064,539.478 859.581,543.733C819.098,547.988 782.777,518.575 778.522,478.092C774.267,437.61 803.68,401.288 844.162,397.033Z" style="fill:white;"/>
        </g>
        <g transform="matrix(0.418593,0,0,0.418593,-70.2608,-27.4113)">
            <path d="M844.637,396.985C871.16,394.452 898.41,407.338 913.191,429.392C925.859,448.293 929.056,473.262 921.475,494.801C910.805,525.112 878.871,546.709 845.565,543.878C822.572,541.924 800.887,528.438 788.867,508.739C777.001,489.293 774.901,464.178 783.37,443.037C793.22,418.449 816.984,400.149 843.688,397.085C844.004,397.05 844.32,397.017 844.637,396.985ZM846.348,420.926C824.307,423.455 805.046,442.195 802.435,464.573C800.476,481.355 807.762,498.935 821.031,509.42C836.065,521.301 858.189,523.49 875.376,514.261C890.462,506.159 900.783,489.86 901.586,472.799C902.589,451.492 888.313,430.306 868.04,423.309C861.11,420.917 853.673,420.132 846.348,420.926Z" style="fill:white;fill-rule:nonzero;"/>
        </g>
        <g transform="matrix(0.418593,0,0,0.418593,-70.2608,-27.4113)">
            <path d="M1146.86,636.441C1146.86,636.441 1153.3,636.181 1157.05,640.34C1162.82,646.749 1159.36,659.221 1149.15,660.322C1148.87,660.352 1148.6,660.384 1148.33,660.417C1139,661.581 1129.47,663.593 1121.77,668.393C1119.86,669.583 1117.83,671.035 1117.16,672.884C1116.11,675.755 1118.43,679.001 1120.6,682.039C1133.09,699.554 1155.04,708.891 1168.08,723.717C1176.65,733.452 1182.77,746.073 1181.04,759.11C1178.4,778.935 1158.63,793.336 1139.02,798.269C1124.7,801.869 1107.29,801.791 1099.04,788.696C1094.18,780.991 1095.07,770.48 1099.53,762.392C1103.7,754.828 1116.96,754.556 1120.93,763.167C1122.74,767.091 1121.17,771.486 1119.95,775.708C1119.95,775.708 1125.22,776.451 1129.5,775.763C1138.54,774.306 1147.57,770.353 1153.46,763.594C1156.19,760.456 1157.95,756.195 1157.1,751.949C1154.74,740.1 1142.03,731.589 1131.31,723.952C1119.4,715.432 1107.68,706.266 1099.61,693.819C1094.15,685.407 1091.08,674.719 1094.52,664.954C1098.46,653.757 1109.7,646.388 1121.6,642.124C1129.54,639.279 1137.88,637.466 1146.22,636.51C1146.43,636.487 1146.65,636.464 1146.86,636.441ZM1386.99,611.203C1386.99,611.203 1391.67,611.064 1394.74,613.032C1401.15,617.142 1402.04,627.897 1395.36,632.8C1393.09,634.467 1390.28,634.924 1387.33,635.325C1377.32,636.727 1366.51,638.694 1359.33,645.037C1355.05,648.812 1359.33,655.676 1364.28,661.186C1377.57,675.986 1396.35,685 1408.21,698.478C1416.78,708.213 1422.9,720.834 1421.17,733.872C1418.53,753.696 1398.76,768.097 1379.14,773.03C1364.83,776.631 1347.41,776.552 1339.16,763.458C1334.31,755.753 1335.2,745.241 1339.66,737.154C1343.83,729.591 1357.03,729.194 1361.06,737.928C1362.86,741.852 1361.3,746.247 1360.08,750.47C1360.08,750.47 1365.35,751.213 1369.63,750.525C1378.67,749.068 1387.7,745.114 1393.59,738.355C1396.32,735.217 1398.08,730.957 1397.23,726.71C1394.87,714.862 1382.16,706.351 1371.44,698.714C1359.53,690.193 1347.81,681.028 1339.73,668.58C1334.28,660.168 1331.21,649.481 1334.65,639.715C1338.59,628.519 1349.83,621.149 1361.73,616.885C1369.67,614.04 1378.01,612.228 1386.35,611.272C1386.56,611.248 1386.78,611.225 1386.99,611.203ZM930.103,820.9L848.23,829.505C846.009,829.671 845.624,829.538 844.624,829.338C840.132,828.44 836.32,824.765 835.286,820.259C835.141,819.631 835.134,819.468 835.047,818.83L823.199,706.101C823.033,703.883 823.166,703.498 823.365,702.5C824.262,698.006 827.924,694.203 832.422,693.162C833.049,693.017 833.211,693.009 833.848,692.921L915.703,684.137C915.944,684.119 916.184,684.1 916.425,684.082C925.345,683.937 932.449,695.01 926.758,703.014C925.078,705.377 922.516,707.094 919.691,707.748C919.063,707.894 918.9,707.901 918.262,707.989L848.308,715.496L851.718,747.94L880.726,744.891C880.873,744.878 881.02,744.866 881.167,744.853C888.702,744.481 895.501,752.234 893.612,759.746C892.423,764.471 888.121,768.143 883.233,768.749L854.225,771.798L857.651,804.394L927.596,797.042C928.238,796.995 928.399,796.968 929.043,796.978C935.514,797.083 941.322,803.197 940.809,809.888C940.384,815.428 935.669,820.144 930.103,820.9ZM644.181,850.952L562.308,859.557C559.42,859.746 558.918,859.505 557.648,859.129C553.144,857.795 549.808,853.589 549.125,848.882L529.5,662.159C529.311,659.271 529.552,658.769 529.928,657.498C531.349,652.702 535.979,649.251 541.115,648.914C547.178,648.994 552.474,653.559 553.358,659.651L571.729,834.446L641.674,827.094C641.674,827.094 643.714,826.928 645.421,827.29C651.256,828.531 655.608,834.6 654.819,840.589C654.204,845.263 650.594,849.386 646.032,850.609C645.222,850.826 645.009,850.832 644.181,850.952ZM1214.57,346.341L1215.64,346.273C1216.47,346.289 1216.68,346.269 1217.52,346.383C1226.32,347.6 1231.35,360.552 1223.84,367.23C1221.53,369.285 1218.42,370.014 1215.24,370.411C1201.87,372.129 1188.2,375.02 1176.99,382.168C1173.35,384.489 1169.72,387.418 1168.84,391.492C1167.52,397.676 1171.69,403.364 1175.07,407.925C1185.78,422.39 1201.38,433.115 1215.7,443.33C1232.65,455.474 1248.67,470.51 1254.69,489.474C1258.12,500.264 1257.63,512.227 1252.79,522.665C1239.43,551.477 1201.34,565.567 1174.79,561.591C1164.99,560.124 1155.21,555.089 1150.87,545.929C1146.73,537.198 1148.56,526.466 1152.73,517.605L1153.16,516.769C1153.6,516.059 1153.69,515.866 1154.22,515.211C1159.8,508.232 1173.5,510.735 1175.36,520.452C1176.33,525.52 1171.89,530.407 1172.44,535.188C1172.75,537.907 1179.47,538.479 1185.65,538.115C1201.41,537.186 1217.49,530.251 1227.07,518.722C1230.71,514.343 1233.2,508.899 1232.98,503.113C1232.61,492.91 1225.75,484.287 1219,477.366C1200.35,458.237 1174.95,447.192 1156.7,423.404C1155.89,422.355 1155.11,421.287 1154.36,420.201C1146.64,409.098 1141.63,394.511 1147.02,381.134C1152.67,367.117 1167.51,358.469 1182.66,353.307C1192.73,349.878 1203.19,347.639 1213.73,346.431C1214.01,346.4 1214.29,346.37 1214.57,346.341ZM1391.47,540.655L1309.59,549.26C1306.71,549.45 1306.2,549.209 1304.93,548.832C1300.43,547.498 1297.09,543.293 1296.41,538.585L1276.79,351.862C1276.6,348.981 1276.84,348.48 1277.21,347.212C1278.54,342.717 1282.72,339.382 1287.42,338.684L1369.26,329.783C1369.57,329.761 1369.89,329.74 1370.2,329.718C1373.27,329.747 1374.12,330.125 1375.68,330.863C1382.15,333.919 1384.59,343.393 1379.9,349.222C1377.94,351.671 1374.99,353.165 1371.85,353.632L1301.89,361.24L1309.19,430.639L1345.73,426.798C1345.89,426.784 1346.06,426.771 1346.22,426.757C1353.99,426.413 1360.79,434.661 1358.45,442.249C1357.08,446.713 1352.94,450.066 1348.24,450.656L1311.69,454.497L1319.02,524.149L1388.96,516.797C1397.09,516.265 1404.54,524.879 1401.41,533.025C1400.06,536.542 1396.96,539.336 1393.32,540.312C1392.51,540.529 1392.29,540.535 1391.47,540.655ZM1081.48,360.047C1086.6,360.194 1090.96,363.372 1093.1,368.424C1119.17,430.09 1120.39,501.43 1096.43,563.974C1096.43,563.974 1093.69,570.6 1087.98,572.11C1081.64,573.789 1074.33,569.313 1073.11,562.667C1072.47,559.138 1073.98,555.604 1075.25,552.162C1095.9,495.782 1094.1,431.886 1070.57,376.748L1070.24,375.868C1069.42,373.092 1069.55,372.549 1069.64,371.227C1069.98,366.221 1073.74,361.65 1078.68,360.408C1080.43,359.967 1080.89,360.076 1081.48,360.047ZM639.45,618.547C636.859,617.799 634.578,616.13 632.899,613.96L533.968,475.175L548.86,616.857C548.86,616.857 549.026,618.897 548.663,620.605C546.992,628.466 536.163,632.923 529.383,627.432C527.43,625.851 525.995,623.643 525.345,621.215C525.128,620.406 525.122,620.192 525.002,619.365L505.346,432.346C505.158,429.505 505.39,429.011 505.752,427.759C507.123,423.02 511.598,419.577 516.64,419.114C520.696,419.056 524.524,420.871 527.042,424.13L594.74,519.1C588.784,487.646 588.471,455.082 594.219,423.491C594.935,419.553 595.801,415.499 598.618,412.888C600.679,410.978 603.333,409.937 606.285,409.701C609.179,409.697 609.665,409.97 610.909,410.427C616.756,412.575 619.411,419.462 618.222,425.633C607.008,484.539 618.719,548.213 652.467,600.069C652.467,600.069 652.651,600.344 652.901,600.771C654.151,602.801 654.301,603.695 654.53,605.228C655.624,612.566 648.476,620.134 640.683,618.827C640.607,618.814 640.53,618.801 640.455,618.786C640.372,618.771 640.289,618.755 640.206,618.737C639.949,618.683 639.697,618.62 639.45,618.547Z" style="fill:white;fill-rule:nonzero;"/>
        </g>
    </g>
</svg>
