<?xml version="1.0" encoding="UTF-8" standalone="no"?>
<!DOCTYPE svg PUBLIC "-//W3C//DTD SVG 1.1//EN" "http://www.w3.org/Graphics/SVG/1.1/DTD/svg11.dtd">
<svg width="100%" height="100%" viewBox="0 0 666 410" version="1.1" xmlns="http://www.w3.org/2000/svg" xmlns:xlink="http://www.w3.org/1999/xlink" xml:space="preserve" xmlns:serif="http://www.serif.com/" style="fill-rule:evenodd;clip-rule:evenodd;stroke-linejoin:round;stroke-miterlimit:2;">
    <rect x="0" y="0" width="666" height="410" style="fill-rule:nonzero;"/>
    <g transform="matrix(205.684,0,0,205.684,230.099,265.69)">
        <path d="M0.84,-0.481C0.813,-0.508 0.624,-0.698 0.597,-0.725L0.229,-0.725C0.212,-0.725 0.196,-0.718 0.183,-0.705C0.169,-0.692 0.162,-0.676 0.162,-0.659C0.159,-0.42 0.159,-0.181 0.162,0.057C0.162,0.075 0.169,0.09 0.182,0.103C0.195,0.116 0.21,0.123 0.228,0.124C0.41,0.126 0.592,0.126 0.774,0.124C0.792,0.123 0.807,0.116 0.82,0.103C0.832,0.09 0.839,0.075 0.84,0.057C0.841,0.057 0.841,-0.033 0.841,-0.212L0.84,-0.481ZM0.258,-0.628L0.557,-0.628L0.743,-0.441L0.743,0.026L0.258,0.026L0.258,-0.628Z" style="fill:white;fill-rule:nonzero;"/>
    </g>
</svg>
