<?xml version="1.0" encoding="UTF-8" standalone="no"?>
<!DOCTYPE svg PUBLIC "-//W3C//DTD SVG 1.1//EN" "http://www.w3.org/Graphics/SVG/1.1/DTD/svg11.dtd">
<svg width="100%" height="100%" viewBox="0 0 633 423" version="1.1" xmlns="http://www.w3.org/2000/svg" xmlns:xlink="http://www.w3.org/1999/xlink" xml:space="preserve" xmlns:serif="http://www.serif.com/" style="fill-rule:evenodd;clip-rule:evenodd;stroke-linecap:round;stroke-linejoin:round;stroke-miterlimit:1.5;">
    <g transform="matrix(-753.394,-9.22642e-14,54.381,-753.394,454.308,-107.929)">
        <path d="M-0.136,-0.65C-0.043,-0.726 0.247,-0.697 0.373,-0.665C0.493,-0.633 0.536,-0.397 0.465,-0.243C0.432,-0.174 0.368,-0.14 0.159,-0.145C0,-0.148 -0.05,-0.17 -0.114,-0.213C-0.234,-0.293 -0.205,-0.593 -0.136,-0.65Z" style="fill:rgb(246,0,82);fill-rule:nonzero;"/>
    </g>
    <g transform="matrix(0.649717,0,0,0.649717,102.701,65.1659)">
        <path d="M234.196,186.038C234.196,153.475 260.633,127.038 293.196,127.038" style="fill:none;stroke:white;stroke-width:18.28px;"/>
    </g>
    <g transform="matrix(263.966,0,0,263.966,184.225,288.575)">
        <path d="M0.591,-0.147L0.806,0.068C0.815,0.076 0.826,0.079 0.838,0.079C0.85,0.078 0.86,0.073 0.868,0.065C0.875,0.057 0.879,0.047 0.878,0.035C0.878,0.023 0.874,0.013 0.866,0.005L0.653,-0.208L0.655,-0.211C0.682,-0.249 0.7,-0.292 0.707,-0.34C0.714,-0.388 0.71,-0.434 0.695,-0.479C0.675,-0.537 0.639,-0.585 0.587,-0.623C0.535,-0.66 0.479,-0.678 0.417,-0.679L0.415,-0.679C0.369,-0.678 0.325,-0.668 0.283,-0.647C0.241,-0.626 0.207,-0.597 0.18,-0.561C0.147,-0.517 0.128,-0.467 0.123,-0.411C0.117,-0.356 0.126,-0.304 0.15,-0.256C0.174,-0.206 0.211,-0.166 0.26,-0.135C0.309,-0.104 0.361,-0.089 0.416,-0.089C0.479,-0.089 0.538,-0.108 0.591,-0.147ZM0.415,-0.592L0.418,-0.592C0.456,-0.591 0.492,-0.581 0.525,-0.561C0.558,-0.541 0.583,-0.514 0.6,-0.481C0.621,-0.442 0.628,-0.399 0.622,-0.354C0.614,-0.303 0.59,-0.261 0.55,-0.227C0.509,-0.192 0.465,-0.175 0.415,-0.176C0.376,-0.176 0.339,-0.187 0.304,-0.209C0.27,-0.231 0.244,-0.26 0.228,-0.295C0.208,-0.336 0.203,-0.379 0.212,-0.424C0.222,-0.469 0.242,-0.507 0.274,-0.537C0.313,-0.573 0.36,-0.591 0.415,-0.592Z" style="fill-rule:nonzero;"/>
    </g>
</svg>
