<?xml version="1.0" encoding="UTF-8" standalone="no"?>
<!DOCTYPE svg PUBLIC "-//W3C//DTD SVG 1.1//EN" "http://www.w3.org/Graphics/SVG/1.1/DTD/svg11.dtd">
<svg width="100%" height="100%" viewBox="0 0 633 423" version="1.1" xmlns="http://www.w3.org/2000/svg" xmlns:xlink="http://www.w3.org/1999/xlink" xml:space="preserve" xmlns:serif="http://www.serif.com/" style="fill-rule:evenodd;clip-rule:evenodd;stroke-linecap:round;stroke-linejoin:round;stroke-miterlimit:1.5;">
    <g transform="matrix(753.394,0,-114.067,753.394,156.625,531.545)">
        <path d="M-0.155,-0.654C-0.062,-0.73 0.23,-0.712 0.346,-0.65C0.522,-0.555 0.51,-0.376 0.498,-0.286C0.484,-0.177 0.368,-0.14 0.159,-0.145C0,-0.148 -0.051,-0.169 -0.114,-0.213C-0.251,-0.308 -0.224,-0.598 -0.155,-0.654Z" style="fill:rgb(246,0,82);fill-rule:nonzero;"/>
    </g>
    <g transform="matrix(0.846939,0,0,0.84,73.9058,-33.4719)">
        <path d="M478.92,188.612C478.92,176.364 469.057,166.42 456.909,166.42L108.93,166.42C96.782,166.42 86.92,176.364 86.92,188.612L86.92,394.227C86.92,406.476 96.782,416.42 108.93,416.42L456.909,416.42C469.057,416.42 478.92,406.476 478.92,394.227L478.92,188.612Z" style="fill:none;stroke:rgb(0,16,62);stroke-width:23.01px;"/>
    </g>
    <g transform="matrix(1.00553,0,0,0.0400001,29.038,309.664)">
        <path d="M478.57,-75.954C480.553,-72.174 481.084,-66.615 482.143,-55.347C485.602,-18.563 488.138,67.163 488.52,161.766C488.566,173.153 488.561,174.969 488.572,185.612L488.572,397.23C488.525,444.061 488.322,458.578 487.931,485.37C486.582,577.972 483.037,647.717 479.104,657.769C478.656,658.915 478.579,658.787 478.159,659.055L87.68,659.055C85.829,657.874 85.243,652.775 84.177,642.96C80.492,609.027 77.718,519.898 77.318,421.027C77.273,409.83 77.278,407.799 77.267,397.311L77.267,185.531C77.314,139.274 77.517,124.289 77.907,97.493C79.257,4.842 82.804,-64.884 86.734,-74.934C87.178,-76.069 87.265,-75.951 87.68,-76.216L478.159,-76.216C478.296,-76.128 478.433,-76.041 478.57,-75.954Z" style="fill:rgb(0,16,62);"/>
    </g>
    <g transform="matrix(144.562,0,0,144.562,240.509,254.725)">
        <path d="M0.4,-0.059L0.447,-0.118C0.45,-0.122 0.451,-0.126 0.45,-0.131C0.449,-0.133 0.448,-0.135 0.446,-0.137C0.444,-0.139 0.441,-0.14 0.439,-0.141L0.437,-0.142L0.221,-0.158C0.219,-0.158 0.218,-0.158 0.217,-0.157C0.214,-0.157 0.211,-0.155 0.209,-0.153C0.206,-0.15 0.205,-0.147 0.205,-0.144C0.205,-0.142 0.205,-0.14 0.206,-0.138L0.269,0.068C0.269,0.069 0.27,0.07 0.27,0.071C0.271,0.073 0.273,0.076 0.276,0.077C0.279,0.079 0.282,0.079 0.285,0.079C0.289,0.078 0.292,0.076 0.295,0.073L0.343,0.013C0.395,0.038 0.449,0.05 0.505,0.048C0.563,0.047 0.618,0.031 0.67,0.001C0.722,-0.029 0.764,-0.069 0.794,-0.119C0.812,-0.149 0.826,-0.181 0.834,-0.216C0.843,-0.25 0.846,-0.285 0.844,-0.32C0.844,-0.323 0.844,-0.325 0.844,-0.327C0.843,-0.336 0.84,-0.344 0.835,-0.351C0.831,-0.358 0.824,-0.363 0.816,-0.366C0.812,-0.368 0.807,-0.369 0.802,-0.37C0.798,-0.37 0.795,-0.37 0.793,-0.369C0.785,-0.368 0.778,-0.365 0.771,-0.36C0.765,-0.354 0.76,-0.348 0.758,-0.34C0.756,-0.336 0.755,-0.331 0.755,-0.325L0.755,-0.322C0.758,-0.287 0.755,-0.254 0.744,-0.221C0.731,-0.18 0.71,-0.145 0.678,-0.115C0.647,-0.084 0.612,-0.063 0.571,-0.051C0.543,-0.042 0.514,-0.039 0.485,-0.04C0.456,-0.042 0.427,-0.048 0.4,-0.059ZM0.665,-0.612C0.617,-0.636 0.566,-0.648 0.513,-0.648L0.511,-0.648C0.456,-0.648 0.403,-0.634 0.352,-0.608C0.301,-0.582 0.259,-0.546 0.228,-0.501C0.205,-0.469 0.188,-0.434 0.177,-0.396C0.166,-0.357 0.162,-0.318 0.164,-0.279C0.164,-0.277 0.165,-0.275 0.165,-0.272C0.166,-0.26 0.171,-0.249 0.182,-0.24C0.192,-0.232 0.203,-0.229 0.215,-0.23C0.226,-0.232 0.235,-0.237 0.242,-0.245C0.249,-0.254 0.253,-0.264 0.253,-0.274L0.253,-0.277C0.25,-0.312 0.254,-0.346 0.264,-0.379C0.277,-0.419 0.299,-0.454 0.33,-0.485C0.361,-0.515 0.396,-0.536 0.437,-0.549C0.465,-0.557 0.494,-0.561 0.523,-0.559C0.553,-0.558 0.581,-0.552 0.608,-0.541L0.561,-0.481C0.561,-0.481 0.56,-0.48 0.56,-0.479C0.558,-0.476 0.558,-0.473 0.559,-0.469C0.56,-0.464 0.562,-0.461 0.565,-0.459C0.567,-0.458 0.569,-0.458 0.572,-0.458L0.788,-0.442L0.79,-0.442C0.793,-0.442 0.796,-0.444 0.799,-0.446C0.801,-0.448 0.803,-0.451 0.804,-0.455C0.804,-0.457 0.804,-0.459 0.803,-0.461L0.739,-0.668C0.737,-0.674 0.733,-0.678 0.726,-0.679C0.721,-0.679 0.717,-0.677 0.713,-0.673L0.665,-0.612Z" style="fill:white;fill-rule:nonzero;"/>
    </g>
</svg>
