<?xml version="1.0" encoding="UTF-8" standalone="no"?>
<!DOCTYPE svg PUBLIC "-//W3C//DTD SVG 1.1//EN" "http://www.w3.org/Graphics/SVG/1.1/DTD/svg11.dtd">
<svg width="100%" height="100%" viewBox="0 0 633 423" version="1.1" xmlns="http://www.w3.org/2000/svg" xmlns:xlink="http://www.w3.org/1999/xlink" xml:space="preserve" xmlns:serif="http://www.serif.com/" style="fill-rule:evenodd;clip-rule:evenodd;stroke-linecap:round;stroke-linejoin:round;stroke-miterlimit:1.5;">
    <g transform="matrix(753.394,0,-114.067,753.394,156.625,531.545)">
        <path d="M-0.155,-0.654C-0.062,-0.73 0.23,-0.712 0.346,-0.65C0.522,-0.555 0.51,-0.376 0.498,-0.286C0.484,-0.177 0.368,-0.14 0.159,-0.145C0,-0.148 -0.051,-0.169 -0.114,-0.213C-0.251,-0.308 -0.224,-0.598 -0.155,-0.654Z" style="fill:rgb(246,0,82);fill-rule:nonzero;"/>
    </g>
    <g transform="matrix(1,0,0,1,-2.00001,-16.1679)">
        <g transform="matrix(-0.945911,-1.15841e-16,9.94303e-17,-0.81191,592.47,402.092)">
            <path d="M345.185,247.086C345.478,249.223 344.952,251.402 343.747,253.048C342.542,254.694 340.778,255.642 338.921,255.642C320.039,255.642 270.37,255.642 250.952,255.642C249.023,255.642 247.199,254.62 245.996,252.864C244.792,251.108 244.339,248.81 244.766,246.618C246.99,235.188 250.758,215.825 252.626,206.221C253.281,202.855 255.85,200.465 258.812,200.465C273.817,200.465 317.942,200.465 333.382,200.465C336.499,200.465 339.154,203.104 339.646,206.69C341.002,216.579 343.651,235.903 345.185,247.086Z" style="fill:white;"/>
        </g>
        <g transform="matrix(1,0,0,1,3,0)">
            <path d="M250.18,187.533L264.847,196.533L272.646,250.143L346.143,250.143" style="fill:none;stroke:white;stroke-width:6.18px;"/>
        </g>
        <g transform="matrix(1,0,0,1,12.3193,-8.84362)">
            <circle cx="276.702" cy="273.987" r="7.392" style="fill:white;"/>
        </g>
        <g transform="matrix(1,0,0,1,59.986,-8.84362)">
            <circle cx="276.702" cy="273.987" r="7.392" style="fill:white;"/>
        </g>
    </g>
    <g transform="matrix(0.846939,0,0,0.84,73.9058,-33.4719)">
        <path d="M478.92,188.612C478.92,176.364 469.057,166.42 456.909,166.42L108.93,166.42C96.782,166.42 86.92,176.364 86.92,188.612L86.92,394.227C86.92,406.476 96.782,416.42 108.93,416.42L456.909,416.42C469.057,416.42 478.92,406.476 478.92,394.227L478.92,188.612Z" style="fill:none;stroke:rgb(0,16,62);stroke-width:23.01px;"/>
    </g>
    <g transform="matrix(1.00553,0,0,0.0400001,29.038,309.664)">
        <path d="M478.57,-75.954C480.553,-72.174 481.084,-66.615 482.143,-55.347C485.602,-18.563 488.138,67.163 488.52,161.766C488.566,173.153 488.561,174.969 488.572,185.612L488.572,397.23C488.525,444.061 488.322,458.578 487.931,485.37C486.582,577.972 483.037,647.717 479.104,657.769C478.656,658.915 478.579,658.787 478.159,659.055L87.68,659.055C85.829,657.874 85.243,652.775 84.177,642.96C80.492,609.027 77.718,519.898 77.318,421.027C77.273,409.83 77.278,407.799 77.267,397.311L77.267,185.531C77.314,139.274 77.517,124.289 77.907,97.493C79.257,4.842 82.804,-64.884 86.734,-74.934C87.178,-76.069 87.265,-75.951 87.68,-76.216L478.159,-76.216C478.296,-76.128 478.433,-76.041 478.57,-75.954Z" style="fill:rgb(0,16,62);"/>
    </g>
</svg>
