<svg id="Calque_1" data-name="Calque 1" xmlns="http://www.w3.org/2000/svg" viewBox="0 0 503.78 396.41"><defs><style>.cls-1{fill:#00103e;}.cls-2,.cls-4{fill:#fff;}.cls-2,.cls-6{fill-rule:evenodd;}.cls-3,.cls-5{fill:none;stroke-linecap:round;stroke-linejoin:round;}.cls-3{stroke:#fff;stroke-width:5.81px;}.cls-5{stroke:#f60052;stroke-width:23.01px;}.cls-6{fill:#f60052;}</style></defs><path class="cls-1" d="M64.1,35.48c74.05-53.85,279-41.09,354.53,2.83,114.5,67.31,86.8,194.13,68.64,257.89C465.66,373.43,379.51,399.64,232,396.1,119.64,394,85.76,379.1,45.85,347.92-41,280.62,9.21,75.15,64.1,35.48Z"/><path class="cls-2" d="M204.7,173.24a5.64,5.64,0,0,1,5.57-6.54h78.25a5.65,5.65,0,0,1,5.51,6.89c-2,8.73-5.33,23.51-7,30.85a5.63,5.63,0,0,1-5.5,4.39H215.2a5.63,5.63,0,0,1-5.57-4.75C208.42,196.53,206.06,181.77,204.7,173.24Z"/><path class="cls-3" d="M192.69,160.12l13.79,8.46L213.81,219h69.12"/><circle class="cls-4" cx="226.39" cy="233.1" r="6.95"/><circle class="cls-4" cx="271.22" cy="233.1" r="6.95"/><path class="cls-5" d="M407.42,116.48A17.54,17.54,0,0,0,389.89,99H112.73A17.54,17.54,0,0,0,95.2,116.48V278.91a17.54,17.54,0,0,0,17.53,17.53H389.89a17.54,17.54,0,0,0,17.53-17.53Z"/><path class="cls-6" d="M436.32,287.32a8.44,8.44,0,0,1,3.38.77,10.15,10.15,0,0,1,6,8.17c0,.43,0,.5,0,.9v8a8.24,8.24,0,0,1-.61,3.31,10.16,10.16,0,0,1-8.35,6.49c-.42,0-.49,0-.89.05H66.69a8.31,8.31,0,0,1-3.31-.61A10.18,10.18,0,0,1,56.89,306c0-.42,0-.49,0-.89v-8a8.26,8.26,0,0,1,.6-3.32,10.18,10.18,0,0,1,8.35-6.48,6.93,6.93,0,0,1,.89-.05H436.32Z"/></svg>