<?xml version="1.0" encoding="UTF-8" standalone="no"?>
<!DOCTYPE svg PUBLIC "-//W3C//DTD SVG 1.1//EN" "http://www.w3.org/Graphics/SVG/1.1/DTD/svg11.dtd">
<svg width="100%" height="100%" viewBox="0 0 599 417" version="1.1" xmlns="http://www.w3.org/2000/svg" xmlns:xlink="http://www.w3.org/1999/xlink" xml:space="preserve" xmlns:serif="http://www.serif.com/" style="fill-rule:evenodd;clip-rule:evenodd;stroke-linejoin:round;stroke-miterlimit:2;">
    <g transform="matrix(753.394,0,-114.067,753.394,156.832,524.125)">
        <path d="M-0.143,-0.647C-0.05,-0.723 0.223,-0.702 0.339,-0.639C0.516,-0.545 0.505,-0.296 0.428,-0.211C0.35,-0.125 -0.041,-0.109 -0.141,-0.23C-0.298,-0.418 -0.213,-0.59 -0.143,-0.647Z" style="fill:rgb(246,0,82);fill-rule:nonzero;"/>
    </g>
    <g transform="matrix(1.23734,1.23734,-1.23734,1.23734,111.629,-399.414)">
        <path d="M330.994,114.534C330.994,109.204 326.667,104.876 321.337,104.876C316.007,104.876 311.679,109.204 311.679,114.534L311.679,224.993C311.679,230.323 316.007,234.651 321.337,234.651C326.667,234.651 330.994,230.323 330.994,224.993L330.994,114.534Z" style="fill:rgb(0,16,62);"/>
    </g>
    <g transform="matrix(-1.23734,1.23734,-1.23734,-1.23734,906.834,20.6958)">
        <path d="M330.994,114.534C330.994,109.204 326.667,104.876 321.337,104.876C316.007,104.876 311.679,109.204 311.679,114.534L311.679,224.993C311.679,230.323 316.007,234.651 321.337,234.651C326.667,234.651 330.994,230.323 330.994,224.993L330.994,114.534Z" style="fill:rgb(0,16,62);"/>
    </g>
</svg>
