<?xml version="1.0" encoding="UTF-8" standalone="no"?>
<!DOCTYPE svg PUBLIC "-//W3C//DTD SVG 1.1//EN" "http://www.w3.org/Graphics/SVG/1.1/DTD/svg11.dtd">
<svg width="100%" height="100%" viewBox="0 0 633 423" version="1.1" xmlns="http://www.w3.org/2000/svg" xmlns:xlink="http://www.w3.org/1999/xlink" xml:space="preserve" xmlns:serif="http://www.serif.com/" style="fill-rule:evenodd;clip-rule:evenodd;stroke-linecap:round;stroke-linejoin:round;stroke-miterlimit:1.5;">
    <g transform="matrix(753.394,0,-114.067,753.394,156.625,531.545)">
        <path d="M-0.155,-0.654C-0.062,-0.73 0.23,-0.712 0.346,-0.65C0.522,-0.555 0.51,-0.376 0.498,-0.286C0.484,-0.177 0.368,-0.14 0.159,-0.145C0,-0.148 -0.051,-0.169 -0.114,-0.213C-0.251,-0.308 -0.224,-0.598 -0.155,-0.654Z" style="fill:rgb(246,0,82);fill-rule:nonzero;"/>
    </g>
    <g transform="matrix(1,0,0,1,-2.00001,-16.1679)">
        <g transform="matrix(-0.945911,-1.15841e-16,9.94303e-17,-0.81191,592.47,402.092)">
            <path d="M345.185,247.086C345.478,249.223 344.952,251.402 343.747,253.048C342.542,254.694 340.778,255.642 338.921,255.642C320.039,255.642 270.37,255.642 250.952,255.642C249.023,255.642 247.199,254.62 245.996,252.864C244.792,251.108 244.339,248.81 244.766,246.618C246.99,235.188 250.758,215.825 252.626,206.221C253.281,202.855 255.85,200.465 258.812,200.465C273.817,200.465 317.942,200.465 333.382,200.465C336.499,200.465 339.154,203.104 339.646,206.69C341.002,216.579 343.651,235.903 345.185,247.086Z" style="fill:white;"/>
        </g>
        <g transform="matrix(1,0,0,1,3,0)">
            <path d="M250.18,187.533L264.847,196.533L272.646,250.143L346.143,250.143" style="fill:none;stroke:white;stroke-width:6.18px;"/>
        </g>
        <g transform="matrix(1,0,0,1,12.3193,-8.84362)">
            <circle cx="276.702" cy="273.987" r="7.392" style="fill:white;"/>
        </g>
        <g transform="matrix(1,0,0,1,59.986,-8.84362)">
            <circle cx="276.702" cy="273.987" r="7.392" style="fill:white;"/>
        </g>
    </g>
    <g transform="matrix(0.97063,0,0,0.935807,16.4056,-8.53903)">
        <path d="M215.041,151.422C235.368,123.062 327.509,125.92 360.605,142.839C409.184,167.674 429.113,214.484 422.863,232.343C409.376,270.882 374.885,243.99 365.894,258.82C356.902,273.65 384.104,306.519 368.915,321.321C342.708,346.859 280.275,346.08 251.18,321.321C199.173,277.065 173.508,209.369 215.041,151.422Z" style="fill:rgb(0,16,62);"/>
    </g>
    <g transform="matrix(1.07619,0,0,1.12971,12.1034,7.26408)">
        <path d="M313.656,143.452C314.269,137.063 330.064,129.472 336.618,130.596C343.171,131.72 353.589,143.807 352.976,150.196C352.363,156.585 345.765,167.399 330.849,166.276C324.211,165.775 313.043,149.841 313.656,143.452Z" style="fill:white;"/>
    </g>
    <g transform="matrix(1.07619,0,0,1.12971,-48.0675,-16.2926)">
        <path d="M316.676,145.001C317.289,138.612 333.549,131.907 340.102,133.03C346.656,134.154 356.609,140.266 355.996,146.655C355.383,153.044 353.209,168.285 335.97,167.161C329.326,166.728 316.063,151.39 316.676,145.001Z" style="fill:white;"/>
    </g>
    <g transform="matrix(0.760982,-0.760982,0.798829,0.798829,-118.925,295.188)">
        <path d="M316.676,145.001C317.289,138.612 333.549,131.907 340.102,133.03C346.656,134.154 356.609,140.266 355.996,146.655C355.383,153.044 348.56,167.541 333.794,167.982C327.138,168.18 316.063,151.39 316.676,145.001Z" style="fill:white;"/>
    </g>
    <g transform="matrix(0.538096,0.932009,-0.978362,0.564857,218.765,-174.362)">
        <path d="M316.676,145.001C317.289,138.612 333.549,131.907 340.102,133.03C346.656,134.154 356.609,140.266 355.996,146.655C355.383,153.044 348.56,167.541 333.794,167.982C327.138,168.18 316.063,151.39 316.676,145.001Z" style="fill:white;"/>
    </g>
</svg>
