<?xml version="1.0" encoding="UTF-8" standalone="no"?>
<!DOCTYPE svg PUBLIC "-//W3C//DTD SVG 1.1//EN" "http://www.w3.org/Graphics/SVG/1.1/DTD/svg11.dtd">
<svg width="100%" height="100%" viewBox="0 0 633 423" version="1.1" xmlns="http://www.w3.org/2000/svg" xmlns:xlink="http://www.w3.org/1999/xlink" xml:space="preserve" xmlns:serif="http://www.serif.com/" style="fill-rule:evenodd;clip-rule:evenodd;stroke-linejoin:round;stroke-miterlimit:2;">
    <g transform="matrix(753.394,0,-114.067,753.394,166.607,534.808)">
        <path d="M-0.155,-0.654C-0.062,-0.73 0.224,-0.716 0.34,-0.654C0.516,-0.559 0.54,-0.348 0.483,-0.248C0.427,-0.148 0.269,-0.151 0.175,-0.154C0.081,-0.156 -0.054,-0.128 -0.155,-0.249C-0.312,-0.437 -0.225,-0.597 -0.155,-0.654Z" style="fill:rgb(246,0,82);fill-rule:nonzero;"/>
    </g>
    <g transform="matrix(1.09836,0,0,1.11475,-22.2951,10.3907)">
        <path d="M269.248,277.781L346.24,277.169L366.689,174.847C330.859,138.253 322.573,104.563 312.846,74.105L301.071,74.105C301.071,74.105 283.528,142.697 248.187,173.622L269.248,277.781Z" style="fill:rgb(0,16,62);"/>
        <clipPath id="_clip1">
            <path d="M269.248,277.781L346.24,277.169L366.689,174.847C330.859,138.253 322.573,104.563 312.846,74.105L301.071,74.105C301.071,74.105 283.528,142.697 248.187,173.622L269.248,277.781Z"/>
        </clipPath>
        <g clip-path="url(#_clip1)">
            <g transform="matrix(0.452561,0,0,0.860741,166.182,-12.4201)">
                <rect x="306.064" y="89.458" width="10.11" height="151.343" style="fill:rgb(235,235,235);"/>
            </g>
            <g transform="matrix(0.533043,0,0,0.525204,130.562,66.9453)">
                <circle cx="330.969" cy="243.529" r="20.496" style="fill:rgb(235,235,235);"/>
            </g>
        </g>
    </g>
    <g transform="matrix(1,0,0,1,-2.21009,-0.713801)">
        <path d="M369.787,320.762C369.787,316.197 366.081,312.49 361.515,312.49L272.67,312.49C268.105,312.49 264.398,316.197 264.398,320.762C264.398,325.328 268.105,329.034 272.67,329.034L361.515,329.034C366.081,329.034 369.787,325.328 369.787,320.762Z" style="fill:rgb(235,235,235);"/>
    </g>
</svg>
