<?xml version="1.0" encoding="UTF-8" standalone="no"?>
<!DOCTYPE svg PUBLIC "-//W3C//DTD SVG 1.1//EN" "http://www.w3.org/Graphics/SVG/1.1/DTD/svg11.dtd">
<svg width="100%" height="100%" viewBox="0 0 3246 1136" version="1.1" xmlns="http://www.w3.org/2000/svg" xmlns:xlink="http://www.w3.org/1999/xlink" xml:space="preserve" xmlns:serif="http://www.serif.com/" style="fill-rule:evenodd;clip-rule:evenodd;stroke-linejoin:round;stroke-miterlimit:2;">
    <g transform="matrix(4.86101,0,0,4.86101,-1293.61,-963.218)">
        <g transform="matrix(0.368487,0,0,0.368487,330.949,41.1291)">
            <path d="M1259.76,446.537L1089.08,1038.71L197.107,1039.94L346.296,447.846L1259.76,446.537Z" style="fill:rgb(246,0,82);"/>
        </g>
        <g transform="matrix(0.368487,0,0,0.368487,330.949,41.1291)">
            <path d="M478.21,576.436C478.21,576.436 579.964,554.913 614.837,555.113C680.18,555.488 685.982,620.437 682.323,653.649C675.327,720.435 609.711,816.818 488.765,834.145C477.171,877.066 467.425,913.711 460.735,937.789L380.286,950.141C382.036,942.392 478.21,576.436 478.21,576.436ZM539.67,631.025C536.321,640.858 509.077,751.252 509.077,751.252C555.741,748.902 595.899,728.892 616.422,662.019C637.034,594.855 558.165,625.851 539.67,631.025Z" style="fill:rgb(0,16,62);fill-rule:nonzero;"/>
        </g>
        <g transform="matrix(0.368487,0,0,0.368487,330.949,41.1291)">
            <path d="M702.446,671.844L748.656,822.2L807.293,729.536L884.845,716.15L905.086,840.226L993.219,580.594L1098.62,563.996C1049.91,685.865 1008.56,824.102 969.997,939.962L850.005,959.034L830.314,829.076L784.264,916.273L689.17,931.38C689.17,931.38 677.153,884.455 650.134,776.204C650.674,775.597 651.211,774.987 651.744,774.374C676.344,746.123 695.091,712.229 701.838,675.378C702.052,674.21 702.255,673.032 702.446,671.844Z" style="fill:rgb(0,16,62);fill-rule:nonzero;"/>
        </g>
    </g>
</svg>
