<?xml version="1.0" encoding="UTF-8" standalone="no"?>
<!DOCTYPE svg PUBLIC "-//W3C//DTD SVG 1.1//EN" "http://www.w3.org/Graphics/SVG/1.1/DTD/svg11.dtd">
<svg width="100%" height="100%" viewBox="0 0 3246 1136" version="1.1" xmlns="http://www.w3.org/2000/svg" xmlns:xlink="http://www.w3.org/1999/xlink" xml:space="preserve" xmlns:serif="http://www.serif.com/" style="fill-rule:evenodd;clip-rule:evenodd;stroke-linejoin:round;stroke-miterlimit:2;">
    <g id="v4" transform="matrix(1,0,0,1,-416.296,-176.776)">
        <g id="vert" transform="matrix(1,0,0,1,693.935,-679.846)">
            <path d="M-1.733,969.261L-198.261,1912.87L2651.31,1869.45L2888.87,936L-1.733,969.261Z" style="fill:rgb(0,16,62);"/>
            <path d="M2943.74,898.927L2685.67,1912.97L-246.939,1957.65L-251.43,1952.21L-37.624,925.64L2937.82,891.403L2943.74,898.927ZM34.158,1012.88L-143.941,1868.01L2616.95,1825.94L2832.06,980.688L34.158,1012.88Z" style="fill:rgb(246,0,82);"/>
        </g>
        <g id="web" transform="matrix(0.907328,0,0,0.907328,1339.37,47.0299)">
            <g transform="matrix(830.344,0,0,830.344,797.739,1080)">
                <path d="M0.67,-0.727C0.582,-0.493 0.517,-0.266 0.474,-0.045L0.255,-0.008L0.291,-0.366L0.161,0.003L0.021,0.004C0.053,-0.241 0.068,-0.465 0.067,-0.67L0.224,-0.705L0.186,-0.277L0.284,-0.533L0.384,-0.548L0.344,-0.164L0.48,-0.697L0.67,-0.727Z" style="fill:rgb(246,0,82);fill-rule:nonzero;"/>
            </g>
            <g transform="matrix(830.344,0,0,830.344,1304.16,1080)">
                <path d="M0.208,-0.544C0.203,-0.525 0.198,-0.507 0.194,-0.488L0.184,-0.435L0.34,-0.468L0.331,-0.333C0.257,-0.32 0.199,-0.309 0.157,-0.299C0.154,-0.286 0.152,-0.273 0.15,-0.26L0.143,-0.222L0.324,-0.248L0.312,-0.066C0.218,-0.059 0.12,-0.036 -0.024,0.001L0.093,-0.699L0.397,-0.747L0.384,-0.566C0.32,-0.56 0.261,-0.553 0.208,-0.544Z" style="fill:rgb(246,0,82);fill-rule:nonzero;"/>
            </g>
            <g transform="matrix(830.344,0,0,830.344,1627.38,1080)">
                <path d="M0.07,-0.687C0.091,-0.69 0.13,-0.699 0.188,-0.713C0.237,-0.725 0.277,-0.732 0.307,-0.735C0.318,-0.736 0.33,-0.736 0.341,-0.736C0.427,-0.736 0.469,-0.706 0.469,-0.645C0.469,-0.558 0.415,-0.471 0.309,-0.385C0.376,-0.389 0.414,-0.37 0.425,-0.328C0.427,-0.319 0.428,-0.31 0.428,-0.3C0.428,-0.251 0.404,-0.201 0.357,-0.151C0.322,-0.113 0.277,-0.079 0.225,-0.05C0.161,-0.015 0.089,0.003 0.007,0.003C-0.006,0.003 -0.019,0.003 -0.032,0.002C-0.007,-0.132 0.021,-0.311 0.052,-0.536C0.061,-0.6 0.067,-0.65 0.07,-0.687ZM0.174,-0.28C0.169,-0.256 0.163,-0.222 0.157,-0.18C0.249,-0.208 0.295,-0.24 0.295,-0.275C0.295,-0.288 0.284,-0.295 0.261,-0.295C0.241,-0.295 0.212,-0.29 0.174,-0.28ZM0.228,-0.542C0.222,-0.521 0.217,-0.499 0.213,-0.478L0.199,-0.413C0.247,-0.442 0.281,-0.476 0.301,-0.515C0.305,-0.523 0.308,-0.53 0.308,-0.535C0.308,-0.546 0.299,-0.552 0.282,-0.552C0.269,-0.552 0.251,-0.549 0.228,-0.542Z" style="fill:rgb(246,0,82);fill-rule:nonzero;"/>
            </g>
            <g transform="matrix(1.10214,0,0,1.06385,-1017.35,176.281)">
                <path d="M1148.71,276.291C1200.7,276.291 1234.66,305.23 1250.58,363.108C1258.94,393.028 1261.36,425.891 1257.86,461.696C1254.5,496.031 1245.71,533.308 1231.47,573.528C1206.61,642.197 1169.03,705.47 1118.73,763.348C1057.38,833.979 996.292,869.294 935.472,869.294C882.989,869.294 848.542,840.355 832.131,782.478C824.123,754.029 821.845,722.147 825.3,686.832C828.706,652.007 837.795,614.239 852.568,573.528C877.48,504.369 914.839,440.851 964.644,382.973C1026.05,311.851 1087.4,276.291 1148.71,276.291ZM1108.09,388.857C1140.35,388.857 1161.41,406.81 1171.29,442.714C1176.47,461.275 1177.98,481.662 1175.8,503.874C1173.72,525.173 1168.27,548.298 1159.43,573.249C1144.01,615.848 1120.7,655.1 1089.5,691.004C1051.44,734.82 1013.54,756.728 975.81,756.728C943.252,756.728 921.883,738.776 911.703,702.871C906.735,685.223 905.322,665.445 907.465,643.537C909.578,621.933 915.216,598.504 924.381,573.249C939.835,530.346 963.011,490.942 993.907,455.038C1032,410.917 1070.06,388.857 1108.09,388.857Z" style="fill:rgb(246,0,82);"/>
            </g>
            <g transform="matrix(830.344,0,-125.718,830.344,322.409,1081.62)">
                <path d="M0.075,-0.69C0.176,-0.721 0.259,-0.736 0.323,-0.736C0.411,-0.736 0.454,-0.706 0.453,-0.645C0.451,-0.521 0.348,-0.394 0.143,-0.263C0.128,-0.183 0.118,-0.11 0.111,-0.042L-0.044,0.001C-0.042,-0.013 -0.034,-0.057 -0.021,-0.13L0.022,-0.361C0.061,-0.574 0.078,-0.684 0.075,-0.69ZM0.197,-0.593C0.193,-0.575 0.175,-0.426 0.175,-0.426C0.235,-0.456 0.321,-0.539 0.333,-0.575C0.357,-0.645 0.23,-0.604 0.197,-0.593Z" style="fill:rgb(246,0,82);fill-rule:nonzero;"/>
            </g>
            <g transform="matrix(830.344,0,-125.718,830.344,-487.111,1100.27)">
                <path d="M0.075,-0.69C0.176,-0.721 0.259,-0.736 0.323,-0.736C0.411,-0.736 0.454,-0.706 0.453,-0.645C0.451,-0.521 0.348,-0.394 0.143,-0.263C0.128,-0.183 0.118,-0.11 0.111,-0.042L-0.044,0.001C-0.042,-0.013 -0.034,-0.057 -0.021,-0.13L0.022,-0.361C0.061,-0.574 0.078,-0.684 0.075,-0.69ZM0.197,-0.593C0.193,-0.575 0.175,-0.426 0.175,-0.426C0.235,-0.456 0.321,-0.539 0.333,-0.575C0.357,-0.645 0.23,-0.604 0.197,-0.593Z" style="fill:rgb(246,0,82);fill-rule:nonzero;"/>
            </g>
        </g>
    </g>
</svg>
