<svg id="Calque_1" data-name="Calque 1" xmlns="http://www.w3.org/2000/svg" viewBox="0 0 327.97 193.56"><defs><style>.cls-1,.cls-2{fill:#fff;}.cls-1{fill-rule:evenodd;}</style></defs><path class="cls-1" d="M272.22,193.41,0,193.78,48.73.4,328,0ZM64,19.92,25.09,174.2l232.42-.32L302,19.58Z"/><path class="cls-2" d="M98.33,53.43s26.52-5.61,35.61-5.56c17,.1,18.53,17,17.58,25.68-1.82,17.4-18.92,42.52-50.44,47-3,11.18-5.56,20.73-7.3,27l-21,3.22C73.27,148.79,98.33,53.43,98.33,53.43Zm16,14.22c-.87,2.56-8,31.33-8,31.33,12.16-.61,22.62-5.83,28-23.25S119.17,66.3,114.35,67.65Z"/><path class="cls-2" d="M156.76,78.29l12.05,39.18,15.27-24.15,20.21-3.49,5.28,32.33,23-67.65L260,50.19c-12.7,31.75-23.47,67.77-33.52,98l-31.27,5-5.13-33.86-12,22.72-24.77,3.94s-3.14-12.23-10.18-40.44l.42-.47c6.41-7.37,11.3-16.2,13.06-25.8Z"/></svg>