<?xml version="1.0" encoding="UTF-8" standalone="no"?>
<!DOCTYPE svg PUBLIC "-//W3C//DTD SVG 1.1//EN" "http://www.w3.org/Graphics/SVG/1.1/DTD/svg11.dtd">
<svg width="100%" height="100%" viewBox="0 0 720 720" version="1.1" xmlns="http://www.w3.org/2000/svg" xmlns:xlink="http://www.w3.org/1999/xlink" xml:space="preserve" xmlns:serif="http://www.serif.com/" style="fill-rule:evenodd;clip-rule:evenodd;stroke-linejoin:round;stroke-miterlimit:2;">
    <circle cx="360" cy="360" r="360" style="fill:rgb(246,0,82);"/>
    <g transform="matrix(1.10427,0,0,1.10427,-56.6998,-56.8573)">
        <circle cx="388.448" cy="389.958" r="155.329" style="fill:white;"/>
    </g>
    <g transform="matrix(531.932,0,0,531.932,94.034,519.606)">
        <path d="M0.665,-0.691C0.613,-0.714 0.558,-0.725 0.5,-0.725C0.442,-0.725 0.387,-0.714 0.335,-0.691C0.283,-0.669 0.237,-0.639 0.199,-0.601C0.162,-0.563 0.131,-0.517 0.109,-0.465C0.086,-0.412 0.075,-0.357 0.075,-0.3C0.075,-0.242 0.086,-0.187 0.109,-0.135C0.131,-0.082 0.162,-0.037 0.199,0.001C0.237,0.039 0.283,0.069 0.335,0.091C0.387,0.114 0.442,0.125 0.5,0.125C0.558,0.125 0.613,0.114 0.665,0.091C0.717,0.069 0.763,0.039 0.801,0.001C0.838,-0.037 0.869,-0.082 0.891,-0.135C0.914,-0.187 0.925,-0.242 0.925,-0.3C0.925,-0.357 0.914,-0.412 0.891,-0.465C0.869,-0.517 0.838,-0.563 0.801,-0.601C0.763,-0.639 0.717,-0.669 0.665,-0.691ZM0.345,-0.229C0.356,-0.228 0.369,-0.221 0.385,-0.209C0.402,-0.197 0.413,-0.189 0.419,-0.186C0.452,-0.169 0.489,-0.163 0.528,-0.169C0.568,-0.174 0.601,-0.19 0.628,-0.217C0.629,-0.218 0.631,-0.219 0.634,-0.221C0.636,-0.222 0.641,-0.224 0.647,-0.227C0.654,-0.229 0.66,-0.229 0.666,-0.228C0.682,-0.225 0.693,-0.215 0.698,-0.199C0.702,-0.182 0.698,-0.167 0.684,-0.152C0.659,-0.128 0.631,-0.11 0.6,-0.096C0.569,-0.083 0.537,-0.077 0.504,-0.078C0.469,-0.078 0.434,-0.086 0.4,-0.099C0.366,-0.113 0.337,-0.132 0.313,-0.156C0.308,-0.161 0.305,-0.165 0.303,-0.169C0.297,-0.183 0.298,-0.197 0.306,-0.21C0.315,-0.223 0.328,-0.23 0.345,-0.229ZM0.311,-0.456C0.323,-0.468 0.338,-0.474 0.354,-0.474C0.371,-0.474 0.386,-0.468 0.397,-0.456C0.409,-0.444 0.415,-0.43 0.415,-0.413C0.415,-0.396 0.409,-0.382 0.397,-0.37C0.386,-0.358 0.371,-0.352 0.354,-0.352C0.338,-0.352 0.323,-0.358 0.311,-0.37C0.299,-0.382 0.293,-0.396 0.293,-0.413C0.293,-0.43 0.299,-0.444 0.311,-0.456ZM0.603,-0.456C0.614,-0.468 0.629,-0.474 0.646,-0.474C0.662,-0.474 0.677,-0.468 0.689,-0.456C0.701,-0.444 0.707,-0.43 0.707,-0.413C0.707,-0.396 0.701,-0.382 0.689,-0.37C0.677,-0.358 0.662,-0.352 0.646,-0.352C0.629,-0.352 0.614,-0.358 0.603,-0.37C0.591,-0.382 0.585,-0.396 0.585,-0.413C0.585,-0.43 0.591,-0.444 0.603,-0.456Z" style="fill:rgb(0,16,62);fill-rule:nonzero;"/>
    </g>
</svg>
