<?xml version="1.0" encoding="UTF-8" standalone="no"?>
<!DOCTYPE svg PUBLIC "-//W3C//DTD SVG 1.1//EN" "http://www.w3.org/Graphics/SVG/1.1/DTD/svg11.dtd">
<svg width="100%" height="100%" viewBox="0 0 720 720" version="1.1" xmlns="http://www.w3.org/2000/svg" xmlns:xlink="http://www.w3.org/1999/xlink" xml:space="preserve" xmlns:serif="http://www.serif.com/" style="fill-rule:evenodd;clip-rule:evenodd;stroke-linejoin:round;stroke-miterlimit:2;">
    <g transform="matrix(3.86604,0,0,3.86604,79.5189,79.7122)">
        <path d="M72.5,2.1C33.5,2.1 2,33.6 2,72.6C2,102.5 20.5,128 46.8,138.2C46.2,132.6 45.6,124.1 47,118C48.3,112.5 55.3,83 55.3,83C55.3,83 53.2,78.8 53.2,72.5C53.2,62.7 58.9,55.4 65.9,55.4C71.9,55.4 74.8,60 74.8,65.4C74.8,71.4 71,80.5 69,88.9C67.3,95.9 72.5,101.6 79.5,101.6C92,101.6 101.6,88.4 101.6,69.3C101.6,52.5 89.4,40.6 72.2,40.6C52.2,40.6 40.3,55.6 40.3,71.2C40.3,77.2 42.6,83.8 45.6,87.3C46.1,88 46.2,88.6 46.1,89.3C45.6,91.5 44.4,96.3 44.2,97.2C43.9,98.5 43.1,98.8 41.9,98.2C33,94 27.5,81.2 27.5,70.8C27.5,48.6 43.7,28.1 74.1,28.1C98.6,28.1 117.5,45.6 117.5,68.7C117.5,92.9 102.2,112.5 81,112.5C73.9,112.5 67.1,108.8 64.8,104.5C64.8,104.5 61.3,117.9 60.5,121.2C58.9,127.3 54.6,135 51.7,139.7C58.3,141.7 65.2,142.9 72.6,142.9C111.6,142.9 143.1,111.4 143.1,72.4C143,33.6 111.5,2.1 72.5,2.1Z" style="fill-rule:nonzero;"/>
    </g>
</svg>
