<svg id="Calque_1" data-name="Calque 1" xmlns="http://www.w3.org/2000/svg" viewBox="0 0 510.33 393.89"><defs><style>.cls-1{fill:#00103e;}.cls-2{fill:none;stroke:#f60052;stroke-linecap:round;stroke-linejoin:round;stroke-width:23.01px;}.cls-3{fill:#f60052;fill-rule:evenodd;}.cls-4{fill:#fff;}</style></defs><path class="cls-1" d="M455.53,357.39C385.75,411.24,172.81,397.07,87,368.73-26.43,330.47-4.18,218.53,17.82,100.21,31.9,23,117.4-3.23,265.22.31c112.49,2.13,147.55,17,189.94,48.18C547.36,115.8,507.33,317,455.53,357.39Z"/><path class="cls-2" d="M409,116.59a17.54,17.54,0,0,0-17.53-17.53H114.31a17.54,17.54,0,0,0-17.53,17.53V279a17.54,17.54,0,0,0,17.53,17.53H391.46A17.54,17.54,0,0,0,409,279Z"/><path class="cls-3" d="M437.89,287.43a8.39,8.39,0,0,1,3.38.77,10.15,10.15,0,0,1,6,8.17,7.08,7.08,0,0,1,.05.9v8a8.26,8.26,0,0,1-.6,3.31A10.17,10.17,0,0,1,438.4,315c-.43,0-.5,0-.9.05H68.27a8.37,8.37,0,0,1-3.32-.61,10.17,10.17,0,0,1-6.48-8.35c0-.42,0-.49,0-.89v-8A8.43,8.43,0,0,1,59,294a10.19,10.19,0,0,1,8.35-6.48,7,7,0,0,1,.9-.05H437.89Z"/><path class="cls-4" d="M241.06,189.21v64.44H269.7V189.06h26.59l-40.91-46.17-40.91,46.47,22.79-.15,3.8-.15Z"/></svg>