<?xml version="1.0" encoding="UTF-8" standalone="no"?>
<!DOCTYPE svg PUBLIC "-//W3C//DTD SVG 1.1//EN" "http://www.w3.org/Graphics/SVG/1.1/DTD/svg11.dtd">
<svg width="100%" height="100%" viewBox="0 0 633 423" version="1.1" xmlns="http://www.w3.org/2000/svg" xmlns:xlink="http://www.w3.org/1999/xlink" xml:space="preserve" xmlns:serif="http://www.serif.com/" style="fill-rule:evenodd;clip-rule:evenodd;stroke-linecap:round;stroke-linejoin:round;stroke-miterlimit:1.5;">
    <g transform="matrix(-753.394,-9.22642e-14,54.381,-753.394,454.308,-107.929)">
        <path d="M-0.146,-0.649C-0.053,-0.725 0.249,-0.705 0.373,-0.665C0.537,-0.611 0.517,-0.453 0.498,-0.286C0.486,-0.177 0.368,-0.14 0.159,-0.145C0,-0.148 -0.051,-0.169 -0.114,-0.213C-0.251,-0.308 -0.215,-0.592 -0.146,-0.649Z" style="fill:rgb(246,0,82);fill-rule:nonzero;"/>
    </g>
    <g transform="matrix(0.846939,0,0,0.84,73.9058,-33.4719)">
        <path d="M478.92,188.612C478.92,176.364 469.057,166.42 456.909,166.42L108.93,166.42C96.782,166.42 86.92,176.364 86.92,188.612L86.92,394.227C86.92,406.476 96.782,416.42 108.93,416.42L456.909,416.42C469.057,416.42 478.92,406.476 478.92,394.227L478.92,188.612Z" style="fill:none;stroke:rgb(0,16,62);stroke-width:23.01px;"/>
    </g>
    <g transform="matrix(1.00553,0,0,0.0400001,29.038,309.664)">
        <path d="M478.57,-75.954C480.553,-72.174 481.084,-66.615 482.143,-55.347C485.602,-18.563 488.138,67.163 488.52,161.766C488.566,173.153 488.561,174.969 488.572,185.612L488.572,397.23C488.525,444.061 488.322,458.578 487.931,485.37C486.582,577.972 483.037,647.717 479.104,657.769C478.656,658.915 478.579,658.787 478.159,659.055L87.68,659.055C85.829,657.874 85.243,652.775 84.177,642.96C80.492,609.027 77.718,519.898 77.318,421.027C77.273,409.83 77.278,407.799 77.267,397.311L77.267,185.531C77.314,139.274 77.517,124.289 77.907,97.493C79.257,4.842 82.804,-64.884 86.734,-74.934C87.178,-76.069 87.265,-75.951 87.68,-76.216L478.159,-76.216C478.296,-76.128 478.433,-76.041 478.57,-75.954Z" style="fill:rgb(0,16,62);"/>
    </g>
    <g transform="matrix(155.38,0,0,155.38,238.484,258.43)">
        <path d="M0.402,-0.362L0.402,0.079L0.598,0.079L0.598,-0.363L0.78,-0.363L0.5,-0.679L0.22,-0.361L0.376,-0.362L0.402,-0.363L0.402,-0.362Z" style="fill:white;fill-rule:nonzero;"/>
    </g>
</svg>
