<?xml version="1.0" encoding="UTF-8" standalone="no"?>
<!DOCTYPE svg PUBLIC "-//W3C//DTD SVG 1.1//EN" "http://www.w3.org/Graphics/SVG/1.1/DTD/svg11.dtd">
<svg width="100%" height="100%" viewBox="0 0 633 423" version="1.1" xmlns="http://www.w3.org/2000/svg" xmlns:xlink="http://www.w3.org/1999/xlink" xml:space="preserve" xmlns:serif="http://www.serif.com/" style="fill-rule:evenodd;clip-rule:evenodd;stroke-linejoin:round;stroke-miterlimit:2;">
    <g transform="matrix(-753.394,-9.22642e-14,54.381,-753.394,454.308,-107.929)">
        <path d="M-0.136,-0.65C-0.043,-0.726 0.247,-0.697 0.373,-0.665C0.493,-0.633 0.536,-0.397 0.465,-0.243C0.432,-0.174 0.368,-0.14 0.159,-0.145C0,-0.148 -0.05,-0.17 -0.114,-0.213C-0.234,-0.293 -0.205,-0.593 -0.136,-0.65Z" style="fill:rgb(246,0,82);fill-rule:nonzero;"/>
    </g>
    <g transform="matrix(1.81437,0,0,1.81437,-238.736,-49.5571)">
        <g transform="matrix(0.90719,0,0,1.15051,-2.90126,-159.671)">
            <path d="M439.863,239.329C439.863,237.213 437.685,235.496 435.002,235.496L246.723,235.496C244.04,235.496 241.863,237.213 241.863,239.329L241.863,286.33C241.863,288.446 244.04,290.163 246.723,290.163L435.002,290.163C437.685,290.163 439.863,288.446 439.863,286.33L439.863,239.329Z" style="fill:white;"/>
        </g>
        <g transform="matrix(0.606061,0,0,0.182927,79.2498,76.19)">
            <path d="M439.863,243.029C439.863,238.871 438.844,235.496 437.589,235.496L244.136,235.496C242.881,235.496 241.863,238.871 241.863,243.029L241.863,282.63C241.863,286.788 242.881,290.163 244.136,290.163L437.589,290.163C438.844,290.163 439.863,286.788 439.863,282.63L439.863,243.029Z" style="fill:rgb(0,16,62);"/>
        </g>
        <g transform="matrix(0.813245,0,0,0.51387,29.1396,15.9514)">
            <path d="M439.863,238.178C439.863,236.698 439.103,235.496 438.168,235.496L243.557,235.496C242.622,235.496 241.863,236.698 241.863,238.178L241.863,287.482C241.863,288.961 242.622,290.163 243.557,290.163L438.168,290.163C439.103,290.163 439.863,288.961 439.863,287.482L439.863,238.178Z" style="fill:rgb(240,240,240);"/>
        </g>
    </g>
</svg>
