<svg id="Calque_1" data-name="Calque 1" xmlns="http://www.w3.org/2000/svg" viewBox="0 0 525.46 397.59"><defs><style>.cls-1{fill:#00103e;}.cls-2,.cls-4{fill:none;stroke-linecap:round;stroke-linejoin:round;}.cls-2{stroke:#f60052;stroke-width:23.01px;}.cls-3{fill:#f60052;fill-rule:evenodd;}.cls-4{stroke:#fff;stroke-width:6.45px;}</style></defs><path class="cls-1" d="M85,36.76c74-53.85,275.17-43.93,350.7,0C550.24,104.07,540,289,488.84,359.83c-50.4,70.85-154.62,19.84-220.83,22-67,2.83-167.85,27.63-226.42-58.1C-49.48,190.5,29.32,77.14,85,36.76Z"/><path class="cls-2" d="M419,117.51A17.54,17.54,0,0,0,401.43,100H124.27a17.54,17.54,0,0,0-17.53,17.53V279.94a17.54,17.54,0,0,0,17.53,17.53H401.43A17.54,17.54,0,0,0,419,279.94Z"/><path class="cls-3" d="M447.86,288.35a8.24,8.24,0,0,1,3.38.78,10.13,10.13,0,0,1,6,8.16c0,.43,0,.5.05.9v8a8.33,8.33,0,0,1-.61,3.32,10.17,10.17,0,0,1-8.35,6.48c-.42,0-.49,0-.89.05H78.23a8.14,8.14,0,0,1-3.31-.61,10.16,10.16,0,0,1-6.49-8.34c0-.42,0-.5,0-.9v-8a8.16,8.16,0,0,1,.6-3.31,10.17,10.17,0,0,1,8.35-6.49c.42,0,.5,0,.89-.05H447.86Z"/><path class="cls-4" d="M298.86,135.76h28.69"/><path class="cls-4" d="M353.64,135.76h28.68"/><path class="cls-4" d="M141.5,135.76h28.68"/></svg>