<?xml version="1.0" encoding="UTF-8" standalone="no"?>
<!DOCTYPE svg PUBLIC "-//W3C//DTD SVG 1.1//EN" "http://www.w3.org/Graphics/SVG/1.1/DTD/svg11.dtd">
<svg width="100%" height="100%" viewBox="0 0 633 423" version="1.1" xmlns="http://www.w3.org/2000/svg" xmlns:xlink="http://www.w3.org/1999/xlink" xml:space="preserve" xmlns:serif="http://www.serif.com/" style="fill-rule:evenodd;clip-rule:evenodd;stroke-linecap:round;stroke-linejoin:round;stroke-miterlimit:1.5;">
    <g transform="matrix(753.394,0,-114.067,753.394,166.607,531.808)">
        <path d="M-0.155,-0.654C-0.062,-0.73 0.224,-0.716 0.34,-0.654C0.516,-0.559 0.541,-0.298 0.484,-0.198C0.428,-0.098 0.27,-0.17 0.177,-0.167C0.083,-0.163 -0.054,-0.128 -0.155,-0.249C-0.312,-0.437 -0.225,-0.597 -0.155,-0.654Z" style="fill:rgb(246,0,82);fill-rule:nonzero;"/>
    </g>
    <g transform="matrix(0.846939,0,0,0.84,73.9058,-33.4719)">
        <path d="M478.92,188.612C478.92,176.364 469.057,166.42 456.909,166.42L108.93,166.42C96.782,166.42 86.92,176.364 86.92,188.612L86.92,394.227C86.92,406.476 96.782,416.42 108.93,416.42L456.909,416.42C469.057,416.42 478.92,406.476 478.92,394.227L478.92,188.612Z" style="fill:none;stroke:rgb(0,16,62);stroke-width:23.01px;"/>
    </g>
    <g transform="matrix(1.00553,0,0,0.0400001,29.038,309.664)">
        <path d="M478.57,-75.954C480.553,-72.174 481.084,-66.615 482.143,-55.347C485.602,-18.563 488.138,67.163 488.52,161.766C488.566,173.153 488.561,174.969 488.572,185.612L488.572,397.23C488.525,444.061 488.322,458.578 487.931,485.37C486.582,577.972 483.037,647.717 479.104,657.769C478.656,658.915 478.579,658.787 478.159,659.055L87.68,659.055C85.829,657.874 85.243,652.775 84.177,642.96C80.492,609.027 77.718,519.898 77.318,421.027C77.273,409.83 77.278,407.799 77.267,397.311L77.267,185.531C77.314,139.274 77.517,124.289 77.907,97.493C79.257,4.842 82.804,-64.884 86.734,-74.934C87.178,-76.069 87.265,-75.951 87.68,-76.216L478.159,-76.216C478.296,-76.128 478.433,-76.041 478.57,-75.954Z" style="fill:rgb(0,16,62);"/>
    </g>
    <g transform="matrix(1,0,0,1,13.5213,-88.6794)">
        <path d="M338.295,233.045L368.795,233.045" style="fill:none;stroke:white;stroke-width:6.86px;"/>
    </g>
    <g transform="matrix(1,0,0,1,71.7713,-88.6794)">
        <path d="M338.295,233.045L368.795,233.045" style="fill:none;stroke:white;stroke-width:6.86px;"/>
    </g>
    <g transform="matrix(1,0,0,1,-153.812,-88.6794)">
        <path d="M338.295,233.045L368.795,233.045" style="fill:none;stroke:white;stroke-width:6.86px;"/>
    </g>
</svg>
