<?xml version="1.0" encoding="UTF-8" standalone="no"?>
<!DOCTYPE svg PUBLIC "-//W3C//DTD SVG 1.1//EN" "http://www.w3.org/Graphics/SVG/1.1/DTD/svg11.dtd">
<svg width="100%" height="100%" viewBox="0 0 633 423" version="1.1" xmlns="http://www.w3.org/2000/svg" xmlns:xlink="http://www.w3.org/1999/xlink" xml:space="preserve" xmlns:serif="http://www.serif.com/" style="fill-rule:evenodd;clip-rule:evenodd;stroke-linejoin:round;stroke-miterlimit:2;">
    <g transform="matrix(753.394,0,-70.6781,753.394,197.235,534.808)">
        <path d="M-0.155,-0.654C-0.062,-0.73 0.247,-0.718 0.351,-0.664C0.493,-0.59 0.515,-0.351 0.458,-0.251C0.402,-0.151 0.269,-0.151 0.175,-0.154C0.081,-0.156 -0.054,-0.128 -0.155,-0.249C-0.312,-0.437 -0.225,-0.597 -0.155,-0.654Z" style="fill:rgb(246,0,82);fill-rule:nonzero;"/>
    </g>
    <g transform="matrix(1.61623,0,0,1.62053,189.872,81.7503)">
        <g transform="matrix(0.976223,0,0,0.976223,-856.256,-2093.9)">
            <path d="M942.144,2207.2C936.126,2206.02 929.936,2206.02 923.918,2207.2L921.746,2220.68C917.475,2222.14 913.529,2224.42 910.128,2227.39L897.362,2222.53C893.331,2227.15 890.236,2232.51 888.25,2238.31L898.843,2246.94C897.974,2251.37 897.974,2255.92 898.843,2260.35L888.25,2268.98C890.236,2274.78 893.331,2280.14 897.362,2284.76L910.128,2279.9C913.529,2282.87 917.475,2285.14 921.746,2286.61L923.918,2300.09C929.936,2301.27 936.126,2301.27 942.144,2300.09L944.316,2286.61C948.587,2285.14 952.532,2282.87 955.934,2279.9L968.7,2284.76C972.731,2280.14 975.826,2274.78 977.812,2268.98L967.219,2260.35C968.088,2255.92 968.088,2251.37 967.219,2246.94L977.812,2238.31C975.826,2232.51 972.731,2227.15 968.7,2222.53L955.934,2227.39C952.532,2224.42 948.587,2222.14 944.316,2220.68L942.144,2207.2ZM933.031,2233.26C944.28,2233.26 953.413,2242.4 953.413,2253.64C953.413,2264.89 944.28,2274.03 933.031,2274.03C921.782,2274.03 912.649,2264.89 912.649,2253.64C912.649,2242.4 921.782,2233.26 933.031,2233.26Z" style="fill:rgb(0,16,62);"/>
        </g>
        <g transform="matrix(0.846988,0,0,0.846988,-678.739,-1861.09)">
            <path d="M942.144,2207.2C936.126,2206.02 929.936,2206.02 923.918,2207.2L921.746,2220.68C917.475,2222.14 913.529,2224.42 910.128,2227.39L897.362,2222.53C893.331,2227.15 890.236,2232.51 888.25,2238.31L898.843,2246.94C897.974,2251.37 897.974,2255.92 898.843,2260.35L888.25,2268.98C890.236,2274.78 893.331,2280.14 897.362,2284.76L910.128,2279.9C913.529,2282.87 917.475,2285.14 921.746,2286.61L923.918,2300.09C929.936,2301.27 936.126,2301.27 942.144,2300.09L944.316,2286.61C948.587,2285.14 952.532,2282.87 955.934,2279.9L968.7,2284.76C972.731,2280.14 975.826,2274.78 977.812,2268.98L967.219,2260.35C968.088,2255.92 968.088,2251.37 967.219,2246.94L977.812,2238.31C975.826,2232.51 972.731,2227.15 968.7,2222.53L955.934,2227.39C952.532,2224.42 948.587,2222.14 944.316,2220.68L942.144,2207.2ZM933.031,2233.26C944.28,2233.26 953.413,2242.4 953.413,2253.64C953.413,2264.89 944.28,2274.03 933.031,2274.03C921.782,2274.03 912.649,2264.89 912.649,2253.64C912.649,2242.4 921.782,2233.26 933.031,2233.26Z" style="fill:white;"/>
        </g>
    </g>
</svg>
