<?xml version="1.0" encoding="UTF-8" standalone="no"?>
<!DOCTYPE svg PUBLIC "-//W3C//DTD SVG 1.1//EN" "http://www.w3.org/Graphics/SVG/1.1/DTD/svg11.dtd">
<svg width="100%" height="100%" viewBox="0 0 633 423" version="1.1" xmlns="http://www.w3.org/2000/svg" xmlns:xlink="http://www.w3.org/1999/xlink" xml:space="preserve" xmlns:serif="http://www.serif.com/" style="fill-rule:evenodd;clip-rule:evenodd;stroke-linejoin:round;stroke-miterlimit:2;">
    <g transform="matrix(753.394,0,-70.6781,753.394,197.235,534.808)">
        <path d="M-0.155,-0.654C-0.062,-0.73 0.247,-0.718 0.351,-0.664C0.493,-0.59 0.515,-0.351 0.458,-0.251C0.402,-0.151 0.269,-0.151 0.175,-0.154C0.081,-0.156 -0.054,-0.128 -0.155,-0.249C-0.312,-0.437 -0.225,-0.597 -0.155,-0.654Z" style="fill:rgb(246,0,82);fill-rule:nonzero;"/>
    </g>
    <g transform="matrix(0.268809,0,0,0.268809,50.6279,56.7359)">
        <g transform="matrix(1,0,0,1,923.459,729.597)">
            <path d="M0,124.078L-3.206,124.078C-19.688,124.078 -21.976,119.958 -21.976,98.895L-21.976,-0.456L0,-0.456C47.612,-0.456 56.313,34.336 56.313,61.352C56.313,89.281 47.612,124.078 0,124.078M-193.206,60.433L-193.206,-0.456L-174.436,-0.456C-153.834,-0.456 -144.674,13.734 -144.674,30.216C-144.674,46.243 -153.834,60.433 -174.436,60.433L-193.206,60.433ZM-1.373,-14.19L-83.328,-14.19L-83.328,-5.495C-57.691,-5.495 -53.571,-0.001 -53.571,32.508L-53.571,91.114C-53.571,123.619 -57.691,129.572 -83.328,129.572C-103.01,126.825 -116.291,116.292 -134.606,96.148L-155.662,73.259C-127.279,68.219 -112.171,50.364 -112.171,30.216C-112.171,5.039 -133.686,-14.19 -173.977,-14.19L-254.558,-14.19L-254.558,-5.495C-228.921,-5.495 -224.801,-0.001 -224.801,32.508L-224.801,91.114C-224.801,123.619 -228.921,129.572 -254.558,129.572L-254.558,138.268L-163.449,138.268L-163.449,129.572C-189.086,129.572 -193.206,123.619 -193.206,91.114L-193.206,74.632L-185.424,74.632L-134.606,138.268L-1.373,138.268C64.099,138.268 92.483,103.476 92.483,61.806C92.483,20.147 64.099,-14.19 -1.373,-14.19" style="fill:rgb(0,16,62);fill-rule:nonzero;"/>
        </g>
        <g transform="matrix(1,0,0,1,413.894,738.291)">
            <path d="M0,68.685L31.59,-24.723C40.75,-51.733 36.63,-59.515 7.327,-59.515L7.327,-68.675L93.402,-68.675L93.402,-59.515C64.559,-59.515 57.692,-52.647 46.244,-19.224L-5.954,137.36L-11.902,137.36L-58.605,-5.949L-106.217,137.36L-112.171,137.36L-162.989,-19.224C-173.977,-52.647 -181.304,-59.515 -207.859,-59.515L-207.859,-68.675L-106.217,-68.675L-106.217,-59.515C-133.233,-59.515 -140.559,-53.107 -130.94,-24.723L-100.269,68.685L-54.025,-68.675L-45.325,-68.675L0,68.685Z" style="fill:rgb(0,16,62);fill-rule:nonzero;"/>
        </g>
        <g transform="matrix(1,0,0,1,569.551,859.619)">
            <path d="M0,-135.971C-42.118,-135.971 -56.772,-97.973 -56.772,-68.216C-56.772,-37.993 -42.118,-0.45 0,-0.45C42.583,-0.45 57.232,-37.993 57.232,-68.216C57.232,-97.973 42.583,-135.971 0,-135.971M0,14.2C-50.359,14.2 -91.568,-22.885 -91.568,-68.216C-91.568,-113.081 -50.359,-150.171 0,-150.171C50.365,-150.171 91.569,-113.081 91.569,-68.216C91.569,-22.885 50.365,14.2 0,14.2" style="fill:rgb(0,16,62);fill-rule:nonzero;"/>
        </g>
        <g transform="matrix(1,0,0,1,1118.95,851.382)">
            <path d="M0,-165.284L-26.096,-165.284L-26.096,-85.616L0,-85.616C25.642,-85.616 37.543,-103.471 37.543,-124.988C37.543,-146.964 25.642,-165.284 0,-165.284M10.074,7.327L10.074,16.482L-94.77,16.482L-94.77,7.327C-64.094,7.327 -58.6,-0.454 -58.6,-46.244L-58.6,-119.494C-58.6,-165.284 -64.094,-172.606 -94.77,-172.606L-94.77,-181.766L0,-181.766C47.158,-181.766 73.259,-157.497 73.259,-124.988C73.259,-93.397 47.158,-68.675 0,-68.675L-26.096,-68.675L-26.096,-46.244C-26.096,-0.454 -20.602,7.327 10.074,7.327" style="fill:rgb(0,16,62);fill-rule:nonzero;"/>
        </g>
        <g transform="matrix(1,0,0,1,1264.09,793.242)">
            <path d="M0,-3.212L0,-64.1L18.769,-64.1C39.371,-64.1 48.531,-49.911 48.531,-33.429C48.531,-17.402 39.371,-3.212 18.769,-3.212L0,-3.212ZM242.645,31.59L240.358,39.831C236.237,54.94 231.198,60.433 198.694,60.433L192.281,60.433C168.478,60.433 164.357,54.94 164.357,22.43L164.357,1.373C200.068,1.373 202.814,4.574 202.814,28.384L211.515,28.384L211.515,-39.837L202.814,-39.837C202.814,-16.028 200.068,-12.827 164.357,-12.827L164.357,-64.1L189.534,-64.1C222.043,-64.1 227.078,-58.606 231.198,-43.498L233.49,-34.803L240.812,-34.803L237.611,-77.835L103.005,-77.835L103.005,-69.14C128.642,-69.14 132.762,-63.646 132.762,-31.136L132.762,27.47C132.762,57.206 129.26,64.697 109.048,65.764C89.836,62.832 76.645,52.351 58.6,32.504L37.538,9.614C65.927,4.574 81.035,-13.281 81.035,-33.429C81.035,-58.606 59.519,-77.835 19.228,-77.835L-61.352,-77.835L-61.352,-69.14C-35.716,-69.14 -31.596,-63.646 -31.596,-31.136L-31.596,27.47C-31.596,59.974 -35.716,65.927 -61.352,65.927L-61.352,74.623L29.756,74.623L29.756,65.927C4.12,65.927 0,59.974 0,27.47L0,10.988L7.781,10.988L58.6,74.623L246.766,74.623L249.513,31.59L242.645,31.59Z" style="fill:rgb(0,16,62);fill-rule:nonzero;"/>
        </g>
        <g transform="matrix(1,0,0,1,1599.67,709.448)">
            <path d="M0,164.37C-18.314,164.37 -34.342,154.755 -41.209,148.802C-43.497,151.094 -47.617,157.962 -48.531,164.37L-57.231,164.37L-57.231,101.189L-48.077,101.189C-44.41,131.406 -23.354,149.261 3.661,149.261C18.31,149.261 30.217,141.02 30.217,127.286C30.217,115.384 19.683,106.223 0.914,97.528L-25.182,85.166C-43.497,76.461 -57.231,61.352 -57.231,41.21C-57.231,19.234 -36.629,0.464 -8.241,0.464C6.868,0.464 19.683,5.959 27.47,12.366C29.757,10.533 32.045,5.493 33.424,0L42.119,0L42.119,54.031L32.504,54.031C29.298,32.509 17.396,14.654 -6.867,14.654C-19.688,14.654 -31.595,21.981 -31.595,33.428C-31.595,45.33 -21.98,51.738 0,61.812L25.177,74.173C47.158,84.702 55.853,101.649 55.853,115.384C55.853,144.227 30.671,164.37 0,164.37" style="fill:rgb(0,16,62);fill-rule:nonzero;"/>
        </g>
        <g transform="matrix(1,0,0,1,1738.11,709.448)">
            <path d="M0,164.37C-18.315,164.37 -34.342,154.755 -41.209,148.802C-43.497,151.094 -47.617,157.962 -48.531,164.37L-57.232,164.37L-57.232,101.189L-48.077,101.189C-44.41,131.406 -23.354,149.261 3.661,149.261C18.31,149.261 30.217,141.02 30.217,127.286C30.217,115.384 19.683,106.223 0.914,97.528L-25.182,85.166C-43.497,76.461 -57.232,61.352 -57.232,41.21C-57.232,19.234 -36.63,0.464 -8.241,0.464C6.868,0.464 19.683,5.959 27.469,12.366C29.757,10.533 32.045,5.493 33.418,0L42.119,0L42.119,54.031L32.504,54.031C29.297,32.509 17.396,14.654 -6.867,14.654C-19.688,14.654 -31.595,21.981 -31.595,33.428C-31.595,45.33 -21.981,51.738 0,61.812L25.177,74.173C47.158,84.702 55.853,101.649 55.853,115.384C55.853,144.227 30.671,164.37 0,164.37" style="fill:rgb(0,16,62);fill-rule:nonzero;"/>
        </g>
        <g transform="matrix(1,0,0,1,1000,618.099)">
            <path d="M0,-412.069C-113.788,-412.069 -206.032,-319.824 -206.032,-206.034C-206.032,-92.245 -113.788,0 0,0C113.788,0 206.032,-92.245 206.032,-206.034C206.032,-319.824 113.788,-412.069 0,-412.069M0,-399.707C26.151,-399.707 51.513,-394.588 75.381,-384.492C86.855,-379.639 97.921,-373.632 108.274,-366.638C118.532,-359.708 128.179,-351.749 136.946,-342.981C145.713,-334.214 153.672,-324.568 160.602,-314.31C167.596,-303.957 173.603,-292.89 178.456,-281.417C188.551,-257.548 193.67,-232.185 193.67,-206.034C193.67,-179.883 188.551,-154.521 178.456,-130.652C173.603,-119.179 167.596,-108.112 160.602,-97.759C153.672,-87.501 145.713,-77.854 136.946,-69.087C128.179,-60.32 118.532,-52.361 108.274,-45.431C97.921,-38.437 86.855,-32.429 75.381,-27.577C51.513,-17.481 26.151,-12.362 0,-12.362C-26.151,-12.362 -51.513,-17.481 -75.381,-27.577C-86.854,-32.429 -97.921,-38.437 -108.274,-45.431C-118.532,-52.361 -128.178,-60.32 -136.945,-69.087C-145.712,-77.854 -153.672,-87.501 -160.602,-97.759C-167.596,-108.112 -173.603,-119.179 -178.456,-130.652C-188.551,-154.521 -193.67,-179.883 -193.67,-206.034C-193.67,-232.185 -188.551,-257.548 -178.456,-281.417C-173.603,-292.89 -167.596,-303.957 -160.602,-314.31C-153.672,-324.568 -145.712,-334.214 -136.945,-342.981C-128.178,-351.749 -118.532,-359.708 -108.274,-366.638C-97.921,-373.632 -86.854,-379.639 -75.381,-384.492C-51.513,-394.588 -26.151,-399.707 0,-399.707" style="fill:white;fill-rule:nonzero;"/>
        </g>
        <g transform="matrix(1,0,0,1,1150.67,494.439)">
            <path d="M0,-164.747C0.737,-159.279 1.154,-153.413 1.154,-147.093C1.154,-129.677 -2.109,-110.091 -11.906,-85.598L-64.345,66.021C-13.3,36.262 21.027,-19.039 21.027,-82.38C21.027,-112.231 13.399,-140.294 0,-164.747M-147.65,-67.362L-199.172,82.326C-183.786,86.853 -167.518,89.322 -150.666,89.322C-130.673,89.322 -111.492,85.871 -93.648,79.587C-94.107,78.852 -94.531,78.073 -94.88,77.221L-147.65,-67.362ZM-34.759,-91.039C-34.759,-112.265 -42.383,-126.956 -48.913,-138.389C-57.617,-152.539 -65.779,-164.51 -65.779,-178.659C-65.779,-194.439 -53.812,-209.13 -36.947,-209.13C-36.185,-209.13 -35.463,-209.038 -34.724,-208.991C-65.27,-236.98 -105.969,-254.069 -150.666,-254.069C-210.652,-254.069 -263.42,-223.291 -294.121,-176.684C-290.09,-176.557 -286.292,-176.476 -283.071,-176.476C-265.117,-176.476 -237.311,-178.659 -237.311,-178.659C-228.06,-179.201 -226.967,-165.603 -236.213,-164.51C-236.213,-164.51 -245.517,-163.42 -255.862,-162.878L-193.341,23.099L-155.763,-89.587L-182.511,-162.878C-191.761,-163.42 -200.519,-164.51 -200.519,-164.51C-209.774,-165.056 -208.689,-179.201 -199.43,-178.659C-199.43,-178.659 -171.082,-176.476 -154.212,-176.476C-136.257,-176.476 -108.447,-178.659 -108.447,-178.659C-99.192,-179.201 -98.103,-165.603 -107.353,-164.51C-107.353,-164.51 -116.667,-163.42 -127.002,-162.878L-64.954,21.683L-47.242,-34.442C-39.373,-58.97 -34.759,-76.348 -34.759,-91.039M-322.36,-82.38C-322.36,-14.423 -282.87,44.311 -225.591,72.139L-307.493,-152.254C-317.02,-130.903 -322.36,-107.273 -322.36,-82.38" style="fill:white;fill-rule:nonzero;"/>
        </g>
    </g>
</svg>
